<?xml version="1.0" standalone="no"?>
<!DOCTYPE svg PUBLIC "-//W3C//DTD SVG 20010904//EN"
 "http://www.w3.org/TR/2001/REC-SVG-20010904/DTD/svg10.dtd">
<svg version="1.0" xmlns="http://www.w3.org/2000/svg"
 width="500.000000pt" height="500.000000pt" viewBox="0 0 500.000000 500.000000"
 preserveAspectRatio="xMidYMid meet">

<g transform="translate(0.000000,500.000000) scale(0.100000,-0.100000)"
fill="#000000" stroke="none">
<path d="M2181 4654 c-51 -8 -153 -30 -226 -49 -848 -217 -1488 -934 -1609
-1803 -21 -150 -21 -454 0 -604 65 -469 276 -890 613 -1229 188 -188 341 -299
581 -419 306 -153 596 -220 960 -220 364 0 654 67 960 220 238 119 392 230
576 414 341 342 550 758 619 1237 20 140 20 458 0 599 -89 627 -434 1168 -970
1524 -207 138 -491 253 -765 312 -114 24 -149 27 -385 30 -196 2 -283 -1 -354
-12z m624 -938 c138 -37 148 -38 140 -25 -19 29 191 -38 315 -102 234 -120
386 -296 450 -519 28 -97 38 -299 20 -407 -16 -100 -60 -236 -111 -340 -84
-176 -256 -398 -413 -535 -42 -37 -156 -155 -253 -263 -208 -229 -210 -230
-368 -229 -55 0 -136 4 -181 9 -56 5 -83 4 -88 -3 -6 -10 80 -152 92 -152 2 0
1 11 -2 25 -4 14 -2 34 4 44 9 17 26 20 152 24 79 3 158 9 177 13 l33 7 -61
-63 c-68 -68 -91 -77 -37 -13 l35 39 -137 -4 c-75 -2 -141 -8 -146 -12 -4 -4
-1 -39 7 -76 9 -38 15 -70 13 -71 -1 -2 -37 48 -80 110 -51 74 -75 118 -71
129 10 26 56 31 160 17 120 -15 229 -8 281 17 25 12 94 80 194 190 85 95 223
239 306 320 247 243 374 440 449 699 63 218 46 474 -42 650 -82 161 -219 293
-398 383 -122 61 -138 60 -48 -3 196 -136 324 -305 376 -500 23 -86 31 -251
17 -359 -42 -320 -276 -733 -671 -1183 -156 -178 -172 -193 -208 -193 -19 0
-34 6 -38 16 -3 9 28 81 75 172 208 406 351 895 408 1397 35 312 -10 510 -145
646 -94 94 -260 159 -406 159 l-54 0 9 -27 c49 -144 51 -983 6 -2040 -11 -250
-14 -285 -31 -303 -30 -33 -105 -22 -152 22 -12 11 -53 100 -91 197 -108 270
-195 564 -252 845 -56 278 -65 357 -64 576 1 189 3 213 27 305 33 123 100 260
166 340 27 33 48 61 46 63 -7 8 -255 -61 -302 -84 -187 -90 -384 -501 -384
-798 1 -385 238 -852 717 -1414 80 -93 14 -51 -191 124 -353 299 -627 660
-739 973 -69 192 -44 450 64 666 167 337 530 543 995 565 216 11 322 5 430
-24z"/>
</g>
</svg>
