<svg data-name="Layer 1" xmlns="http://www.w3.org/2000/svg" viewBox="0 0 258.5 412.6"><path d="M45.1 314.4c.2-.9-.5-1.5-.8-2.2-1.4-3.7-1.2-5.9.4-10.5l.6-2 2.4-1.6c-3.5-4.8-3.3-9.8-.9-14.8l3.8-7.7a18.2 18.2 0 00.7-2.5l1.8-1.5c1.7-4.4 1.5-8.3 3-11.9a2.4 2.4 0 000-1.2c-.4-5.1.8-10.2-.8-15.2-.6-2.1.8-4.1 1.1-6.2a25.6 25.6 0 00.5-2.7 21.8 21.8 0 012-8c1.1-3.1 2.3-6.1 2.3-9.5a14.4 14.4 0 01.8-5.5c1.4-3.8 1-7.9 1-11.8a25.1 25.1 0 011.5-9 2.3 2.3 0 00.1-1.6c-1.4-1.6-.6-3.4-.8-5.2l-.9-9.1a24.5 24.5 0 00-4.9-7 14 14 0 00-6.9-3.6 7.2 7.2 0 01-4.4-2.6 9.7 9.7 0 00-5-3.1 25 25 0 01-11.6-7.6l-.7-.7v-1.9c.1-3 .2-6.1-2.5-8.2-1.3-4.8-4.8-8.3-6.9-12.7-1.6-3.3-2.5-6.8-4-10.1a20 20 0 01-1-2.6l-3-1.4-2-5.5c-3 0-4.2-2.7-5.6-4.8-1-1.6-2.3-3.6-1.8-5.9.4-2.1.7-4.1 2.4-5.7 2-1.8 3.7-3.7 6.1-6.1l-4-.4-1.4-2.1-.4.4-.8-5.4 4-6.2v-4.7l5-2.4a45.8 45.8 0 013.6-6.9c1.1-1.6 3.1-2.5 4.7-3.7l2.5-1.9c.6-2-.8-2.6-1.5-3.6a3.6 3.6 0 00.7-4.2 6.6 6.6 0 01.1-6.1c.4-.8.1-1.9.1-3l-3.2-2.9v-4c1.7-1.8 3.6-3.5 6.3-3.8a15.7 15.7 0 013.2-4.1c1.5-1.3 3-2.8 3-5.1.1-2.7 1.8-4.2 4.2-5 3.4-1.2 7-2 10.5-3.2 3-1 5.6-2.2 7.6-4.4H57l1.5 2.9c-3.7 2.1-3 6.2-4.2 10l1.8 4.8 3-.7v-4.3l-1.5-1.3v-3.8c2.4-2 5.3-2.6 8.6-3a5.5 5.5 0 01-2.8-3h2.3A13 13 0 0074 9l1.5 3.3h11l1.7 1.7h6.1l1.7-2.2 7.9-1.2 1.5 1.5-2 1 2.2 2.6c3.1.8 6 1.3 8 3.7.8 1.1-.7 3 2.1 3.9h2.8c4.7 2.4 7.4 6.1 10.4 9.4.2.2.8 0 1.2 0a7.3 7.3 0 005.8 4.3 119.2 119.2 0 0013.2 1.7 14.7 14.7 0 016.4 1.8c1.2.7 2.4.4 3.1.7l8.7 7.1 3.5 10.1 4.1 3.6a11.8 11.8 0 01-3 3 23.2 23.2 0 00-4.8 4.5c-1.1 1.4-1 3.3-.9 5.1a6.2 6.2 0 004.2 2l.8.8v2.4l4.6.2 1.7 2.7c2.3-3.5 4.2-6.9 7.9-9.5 2.9-.5 5.8.6 8.6 2.2s6 3 9.1 4.5v5h2.3l1.4-1.5h5l3.6 2.4c2.2-.4 4.6.4 7.1-.8 1.4-.7 3.3.1 5.1.6a17.9 17.9 0 018.8 5.1c1.8 2 3.4 4 5.8 5.2a9.6 9.6 0 005.7 1.5h4.3l3.2 3.7.6 6.2a23.6 23.6 0 01-5.4 15.4 122 122 0 00-9.5 12c-2 3.1-5.5 4.4-7.8 7.8.4 2.8-.4 6.1.7 9.6a8.4 8.4 0 01-.5 6.4c-.8 1.5.1 3.7-1 5.5-.4.6-.4 1.6-.9 2.1-2.4 2.8-2.9 6-2.4 9.5-2.7 3.7-4.1 8.1-7.6 11.1-.3 5.3-1.8 7.3-6.9 9a13.3 13.3 0 01-5.5.8 35.3 35.3 0 00-4.6 0c-1.4 1-2.8 1.5-3.7 3.3-.7 1.3-2.7 2-4.3 2.6a20.2 20.2 0 01-4.9 1l-4.3 4.2a18.8 18.8 0 01-2.3 1.6c-1.5 1-3.2 1.8-3.9 5v14a12.9 12.9 0 00-5.8 5.4c-1.3 2.5-3 5-3.5 7.8a6 6 0 01-2.2 3.2 61.1 61.1 0 01-7 6.4c-1.8 1.3-3 3.7-4.2 5.8s-1.8 4-2.8 6a12.6 12.6 0 01-8.8 7c-1.8.3-3.9-.5-5.9-1l-8.9-2.9a29.7 29.7 0 00-4.2-.3c.6 2.5 2.4 3.2 4.1 4.1l1.5 6 2.5 2.1c2.4 3 1.1 5.7-1.1 8.3-1.4 1.7-2.5 3.5-4.6 5a15.4 15.4 0 01-6.2 2.1 49.2 49.2 0 01-14.8.8l-1.9 2.4-.9 11.4c-4.7 3.4-8.7.4-13.2-1.2l-.6 2c-1.3 2.8.3 5.5 2 8.1 2 .6 4.1-2.4 5.6.5l-1.8 3c-2-.2-3.4-2.5-5.6-1.6.5 1.2 2.2 1.6 1.6 3.2a16.9 16.9 0 00-3.4 10.4 6.6 6.6 0 01-3.9 2.5c-2.7.7-5.3 2-7 4.5v6.1a37 37 0 004.3 2.5c2.1 1 3.6 2.1 4.1 4.3-1.3 4.4-1.3 4.4-5.1 7.1-3.4 2.4-4 3.4-4.2 7.6l-3.1 2.8h-2.3c-1.7 1.7-3.7 3.2-3.9 6a30.2 30.2 0 00.4 6.7l3.5 2.6 3 10.6c3.6 5 9.7 6.6 15.7 10.1H88l-6.5 3.4a45.5 45.5 0 01-6.1 1c-2 .2-3.9 0-6.1 0a22.6 22.6 0 01-2.4-3.6c-.8-2.2-2.5-2.9-4.6-3.2s-3.9-.9-4.5-3.3c-2.2-.2-4.9.6-6-2.5a2.6 2.6 0 00-1.7-.9c-4.3 0-6.3-3.2-8.6-5.3-1-3.4 2.5-2.7 3.1-4.6l-1.7-.6 1.5-3.3-.9-3c-1.9-1.2-4-2.2-4.8-4.6V374c.7-4.5-1.3-8.8-1.7-13.2-1.6-1.2-.4-2.9-.9-3.9l4.2-5.4v-2c-1.4-3.5-4-6.3-1.4-9.9 2.5 0 2.7.1 4.3 3.1a2 2 0 002.1-1.9c.6-2.7 1-5.5 1.7-8 1.5-5.8 2.1-11.7 4-17.3.4-1.3.5-2.8-1-3.7-2 .5-2.8 3-4.9 2.7z" fill="none" stroke="#000" stroke-linecap="round" stroke-linejoin="round" stroke-width="5"/><path d="M170.4 77.3l-.8-.8-1.7-2.3c0-2.3 1.4-3.8 3.1-5.4 2.4.6 4.7 1.4 6.3 3.2l2.3-.7 1.7 1.4c-.7 3-2.9 4.3-4.5 6.1-1.8.6-3-.4-4.6-1l-1.8-.5zM45 325.5l-3.2-1.3c-.3-1-1-2.2-.8-3.2.5-2.3 1.1-4.6 1.8-6.8a19.5 19.5 0 012.3.6 1.9 1.9 0 01.8 2.5c-1.2 2.6-.5 5.4-1 8.2z" fill="none" stroke="#000" stroke-linecap="round" stroke-linejoin="round" stroke-width="5"/></svg>