<svg data-name="Layer 1" xmlns="http://www.w3.org/2000/svg" viewBox="0 0 409.1 355.2"><path d="M247.7 255.4l13.3-.4 7.6 1.8 6.2-1.8 6.2-9-1.4-2-7.8 6.6-9.3.4-10.1-1.3-6.2-2.7-6.7 6.8-1.7 3.7-4.2 13.7-1.2 7-3.5 6 2.3 6.2h3.3l.8 8.8-2.7 8.4 3.3 2.7 5-1.4.6-13-.3-10.5 5.4-2.7-1 8.8 5.5 5.3-1.1 3.5 1.8 2.5 8-3.5-4.3 7.4 3 3.2 4.4-2.7.5-6-6.7-10.4 1.5-3.1L251 276l7-3.5 3.8-5.3 3.4 1.3.7-4.1-15 3-4.3 4-7.1-8 1.2-6.7zM211.6 272.4l7.8-6.1-.3-8.2 2.6-6.1 9.5-1.2-9.2-8.4 1.3-4.1-6.1-8.5 4.3-8.2-7.1-1.4h.1l7.1 1.4 5.6-3-1.7-4.4 5.4-.6.4-3.4-6.8-2.8-5.4-2.4-.6-4-4.4-4.5h-3.4l-3.6 7.1-5.8 6.3-6.5 5-3 3.4 3.8 4.7-3.8-4.7-3.7 5.7-5.4 7.1-9.6 2-3.4 1.7-1.3 7.7-6.3 1.7-5.8-3.1-4.7 6-.9 8.4 1.1 8 3.7 7.7 4 2.6 1 12.1 6.5 1.1 5.1-.6 2.8 4.4 9.5-3.3 4 2.8 5.7.6 2.8 5.5 9.2-4.1 1.1 3.3 3.6-13.8zm-53.8-25.5l5.5 5h-.1zm10.6 3.2l-3.6 1.2 3.6-1.2 5.2.5zm21.3-2.2l-7.7-2.6-3.8.8 3.8-.9 7.7 2.7 6.4-1.9zM398.1 280.7l-5.9-3.2-6.6-3.2h-7.2l-9.3 5.4-7 9.7-8.1-5.4-1.9-14.7-1.1-3.4-12.8-3.7-4.2 3-10.8 2.1 3.3 4.6 7.1 1.7 3 5.2 11.8.2.6 2.3-5.7-.2-8.8 3.3 5.9 4.4-.1 4 1.7 3.3 3-.7 2.6-4.5 11.6 8.4 6.6.7 15 7.7 3.3 7.6 1.5 9.8-5.3 2.6-4 7.4 10.1-.3 2.3-2.6 7.8 1.9 6.5 7.4 2.2-29.6 1.4-29.4zM286.4 287.7l1.4 3.8 5.6 1.8 3.1-3v-.1l-2-2.9zM306.2 265.9l-3.3-4.7 1.3-5.5 4.1.8.3-7.8-.9-3.7-4.7-.8-.7-5-2.5 3.2-1.5 7.3 2.4 11.7 3.2 5.6zM322.3 286.8l-8.7-2.5-9.8.4-2.1 5 5.5.3 4.6-.6 6.5.7 6.7 3.7zM124.3 311.9l1-14 2.4-11.3-3.7-5.7-5.8-.7-2.7-5.2-1.3-6.2-2.9-.3-4.5-3.2 3.2-7.3-6.1-4.2-4.7-7.5-6.8-6.3-8.1-.1-7.8-9.7-4.6-3.8-6.4-6.1-7.4-8.9-12.5-1.7-5.1-.4.8 4.6 8.7 9.9 6.3 5.2 4.4 7.8 7.2 5.7 3.2 6.9 2.4 7.9 7 7.5 5.8 12.7 3.8 6.8 5.9 7.4 3.1 5.4 10 7.4 6.4 7.5z" fill="none" stroke="#000" stroke-linecap="round" stroke-linejoin="round" stroke-width="5"/><path d="M351.6 311.3l-1.7 3.1.4 6.8 4.5-6.1.3-4.2-1.7-2.7zM180.6 327.7l-2.6-5.9-14.6-4.4-1.9 3.7-15.2-.8-1-3.3-3.3-.7-6.2-3.4-9.7-.6-5.8 8.7 7.2.5 1.2 4 14.2 3.7 3.4-1.1 5.8.8 9 3.4 7.4 1.8 8.3.7 7.2-.3 8.4 3.5 9.4-3.4-9.4-5.4zM234.5 343.6l-7.5 1.8 9.9 6.3 3.4-.2.7-2.4-2.5-2.7zM227.1 333.8l-5 .8-2.7-2.4-2.3 3.1-4.4.2-3.1 5.1 4.3.1 5.5-1.2 9.4-1.7zM246.6 336.2l-4.8-2.7-6.5 1.8-.2 3.3 10.5 1.1 12.2-2.5 1.6-5-7.4 3.3zM46.8 105.8l4.4 7.4 2.8 11.5 3.7 10.8 3.7 4.7.3 9.8 3 5.4-1.8 6.8 1.3 6.8 3-9.4 3.8-8.3-4-8.3-.3-4.3-1.4-5-6-7.3-2.4-4.6 2.4 4.6 6 7.3 1.4 5 .3 4.3 4 8.3-3.7 8.4-3.1 9.4-1.8 8.7-.4 5.5 1.7 5.1 1-5.4 4 4.4 4.6 5 1.6 4.5 3.4 3.4 2 3.8-.5 6.7 3 4.8 1.4 7.5 4.8 6.1 1 4.5 9.6 7.1 7.7 6.8 5.7-.7v-3l-3.2-8-3-2.6-.7-5.4-1-3 .8-4.1-.7-6.1-3.7-6.1-5-5.4-2-.9-4.3-4.7-4.8-1.1-4.7-5.1-2-7.8-3.7-8.2-5.3-.3-1-6.5 2-8 3-13.2-.2-10 7-.1-.4 7.1 6.7-.1 7.5 4.1-3-10.9 4.3-7.4 10-1.9-10 1.9-4.3 7.4 3 10.9 4.8 9.4 3.7 4.7 6.7 1.3 6.7-3.6 8.2-.7-4-5.4 12.7-7-.1-11-2.6-5.9.3-9.1-.3 9.1 2.6 6v11l-12.6 7 4 5.4-8.2.7-6.7 3.6 6.4 5.3-2 6.1 3.4 5.7 9.4-8.4 5.8-7.5 8.7-5.8 6-6-.5-15.9-5.7-16.6-5.8-7.2-8-5.7-9.1-11.8-7.5-9.5.7-6.3 5.3-8.5 9.2-7.8-8.4-2.3L113 58l.3-5.3-7.4-1.6-4.3-3.4-5.8 4.8-7.5 1h-6.1l-3.8 2.1 5.7 7.2 4.8 8.1 9.7.1 4.3 7.8-4.3-7.8-9.7-.1-4.8-8.2-5.7-7.3-3.8 1.4 2.7 10.3-4.1-.1-1-2.1-1-3.7-5.3 2.6-3.6-1.7-6.4-3.4 1-7.4-5.1-1.9-3.3-8.2-8 1.4-1-10.7 5.8-7.5-1.2-7.5-1.8-7-3.8-2.1-3.8-5.3-4.3.6 1.3 3.4-2.3 1.7 1.8 5.5-5.8-1.6-8.7 6.3 1.3 5.1-3 7.7.4 4.4-2.1 7.4-6.5-2 1.3 9.4-1.3 3 1.3 3.8-3.4 2.1.7 6.5-3-1.4L4 71.7l6.5 7.4 4.8 1.3-.6 3.1L22.5 94l2.7 8.4-1.3 11.2 5.1 2 4.6 1 8.2-6.5zm40 99.5l.4 2.1zm-11-122.6l-.5 9.5zm37.7 47.1l2-4.1zM96.7 84.6l10.4 5.4 8.1 10.7-8.1-10.7zM46.5 92l5 8 5.8 6.5 4.1 6-2 8 2-8-4.1-6-5.8-6.5zM227.1 168.4l4.9-5-2.2-7.4-3.4 9-4.1 6.2-5.4 5.7-3.5 6.2 10-8.5zM279.2 177.6l-5.6.3-1 4-6 2.4-3.1-4-4 3.4-4.8 2.4-2.7 7.7 1.6 2.7 5.5-5.1 3.9.4 2.1-3.8 5.4 4.3-2.2 4.4 2.7 6.5 9.7 5.3 2-4.3-3-6.7 3.4-4.6 3.6 9 2.2-8.1-.9-5-1.2-6.1-.8-3.2-1.2-4.6-6.8-4.3zM242.9 148.5l1.1-7.9-3.1-3.2-6.8-.3 4.8 6.8zM228.5 119.4l1.7 4 4.7 5.3.6-3.3 2.6 2-2.2 2.4.2 3.7 4.1 2 7.1-1.3 5.7 5.4 1.6-3.4 3.5 4.8 6.8 4.5.3-4.2-2.8-2.2.1-4.9-10.6-5.1-3.3 1.1-4.4-1-2.9-7.2.2-7.3 4.2-3 .9-7.5-3.9-6.5.6-3.7-1-2.3-2.1 2.3-5.3-2.6h-4.7l-1.3 8.3 1.6 14-3.7-2.8zM250.4 164.4l4.7-2.7 3.4-3.9-.2-3.7h-5.2l-4.9-2.8 1.7 4.3-.2 4.7zM261.8 160l-4.3.4-.4 5.7-1.7 2.5-1.4 2.5 5.4 6.2 2.3-2.7 1.9-5.7 2.6-3v-8.6l-5.1 8.6zM272.5 155.6l-4.7-.7 1.7 5.5 2.4.4 1 6.5 3.5-2-2.4-5.7-.5-3 6.4 2.4-3.3-10.1-2.6-3.4-7.7-.2 5.7 6.9zM289 334.9l-5.7.3-7 2-1.1 2.1.7 1.8-.7-1.8-8.2 3.7-3.9 5.6-1 2.9.8 1.2 7.1-2h.1l5.6-6.8 7-2.6 8.5-4 3.2-2.4-2.9-1.2z" fill="none" stroke="#000" stroke-linecap="round" stroke-linejoin="round" stroke-width="5"/></svg>