<svg width="390" height="72" viewBox="0 0 390 72" fill="none" xmlns="http://www.w3.org/2000/svg">
<path d="M0.912 72V0.479994H13.968V72H0.912ZM30.7005 27.936V21.696C32.8125 21.184 34.5085 20.256 35.7885 18.912C37.1325 17.504 37.9645 15.84 38.2845 13.92H32.6205V0.479994H45.2925V8.736C45.2925 13.92 44.0445 18.176 41.5485 21.504C39.1165 24.768 35.5005 26.912 30.7005 27.936ZM62.037 72V0.479994H74.517L101.301 36.864H95.349L121.557 0.479994H134.037V72H120.885V15.36L125.973 16.608L98.805 52.8H97.269L70.773 16.608L75.093 15.36V72H62.037ZM164.787 72V0.479994H177.267L204.051 36.864H198.099L224.307 0.479994H236.787V72H223.635V15.36L228.723 16.608L201.555 52.8H200.019L173.523 16.608L177.843 15.36V72H164.787ZM250.475 72V0.479994H263.531V72H250.475ZM277.287 72V0.479994H290.343V60.48H320.967V72H277.287ZM323.556 72L348.228 0.479994H365.124L389.796 72H375.588L370.5 56.64H342.852L337.668 72H323.556ZM346.596 45.12H366.756L354.852 9.504H358.5L346.596 45.12Z" fill="#07343E"/>
</svg>
