<svg xmlns="http://www.w3.org/2000/svg" viewBox="0 0 32 32" style="enable-background:new 0 0 32 32;"><path d="M28.9 9.2c-.9.4-1.9.6-2.9.8 1-.6 1.8-1.6 2.2-2.7-.9.6-2 1-3.1 1.2a4.84 4.84 0 0 0-3.6-1.6 4.91 4.91 0 0 0-4.9 4.9c0 .4 0 .8.1 1.1-4.1-.2-7.7-2.1-10.2-5.1-.4.7-.7 1.6-.7 2.5 0 1.7.9 3.2 2.2 4.1-.8 0-1.6-.2-2.2-.6v.1c0 2.4 1.7 4.4 3.9 4.8-.4.1-.8.2-1.3.2-.3 0-.6 0-.9-.1a4.74 4.74 0 0 0 4.6 3.4c-1.7 1.3-3.8 2.1-6.1 2.1-.4 0-.8 0-1.2-.1 2.2 1.4 4.8 2.2 7.5 2.2 9.1 0 14-7.5 14-14v-.6c1.1-.8 1.9-1.6 2.6-2.6zm0 0"/></svg>