<svg viewBox="0 0 59.31 48.69" xmlns="http://www.w3.org/2000/svg"><g fill="none" stroke="#000" stroke-miterlimit="10"><g transform="translate(-7.46 -11.76)"><path d="m57.13 35.61a23.34 23.34 0 0 0 -42.36-13.54" stroke-linecap="round"/><path d="m50.17 53.15a13.43 13.43 0 0 0 2.93-3.62" stroke-linecap="round"/><path d="m10.45 35.73a23.36 23.36 0 0 0 32.13 22.5" stroke-linecap="round"/><path d="m27.51 37.51-19-7c-.72-.27-.74-1.7 0-2.71 1.3-1.88 5.25-2.49 8.39-2.32 3.71.21 33.8 12.24 40 14.47a2.29 2.29 0 0 0 2.31-.83l3-3.06c1-1.07 3.68-.38 4.08.88l-4.37 9.53c-.69 1.86-3.6 2.5-4.71 2.09l-12.64-4.72"/><path d="m26.62 32.3 14.47 5.37a4 4 0 0 1 2.49 2.57l3.69 13.36c.35 1.27-1 2.25-2.36 1.74l-.91-.34a8 8 0 0 1 -3.31-2.27l-15.82-18.28c-1.05-1.21.2-2.72 1.75-2.15z"/><path d="m43.59 34.74 4-3.06a1.46 1.46 0 0 0 -.59-2.59l-.85-.32a7.55 7.55 0 0 0 -3.63-.4l-11.18 1.83z"/></g><path d="m4.5 14.14 5.02 1.86" stroke-linecap="round"/></g></svg>