<svg xmlns="http://www.w3.org/2000/svg" viewBox="0 0 25.22 44.19"><title>Untitled-2</title><path d="M7.93.53A1.12,1.12,0,0,0,7.81.7c-.07.12-.11.14-.19.12a.41.41,0,0,0-.21,0c-.09.05-.14.05-.28,0S6.65.74,6.65.78s0,.08.08.12a.78.78,0,0,1,.16.26L7,1.35l-.15.14a.41.41,0,0,1-.35.15,1.43,1.43,0,0,1-.41,0,.4.4,0,0,0-.38,0l-.19.1,0,.28c0,.49,0,.51-.23.56S5,2.63,5,2.45l0-.16-.11.13a.53.53,0,0,1-.28.18,1.73,1.73,0,0,0-.31.14c-.08,0-.16.07-.17,0a1.4,1.4,0,0,0-.76,0c-.16.08-.16.08-.21-.06a.39.39,0,0,0-.21-.21c-.28-.14-.34-.11-.34.18,0,.13,0,.15-.26.26s-.25.13-.25.28A.25.25,0,0,1,2,3.47c-.09,0-.1.09-.09.28s0,.24,0,.26,0,0,0,.12.08.25-.06.42a.57.57,0,0,0-.13.2.29.29,0,0,1-.09.14L1.49,5l.11.11a.35.35,0,0,1,.11.3.89.89,0,0,0,.06.3c.09.16.05.28-.12.32a.85.85,0,0,0-.27.11.58.58,0,0,1-.66-.07.29.29,0,0,0-.16-.11c-.09,0-.09,0,.09.26a.62.62,0,0,1,.15.49c0,.25,0,.29.09.3s.11,0,.17-.1.11-.12.21-.07A.16.16,0,0,1,1.38,7a.32.32,0,0,0,.06.18.43.43,0,0,1,.06.21.43.43,0,0,0,.06.21c.09.12.08.26,0,.31A.19.19,0,0,0,1.46,8a3.83,3.83,0,0,0,.72,1,7.56,7.56,0,0,1,1,1.14,1,1,0,0,0,.48.42.16.16,0,0,1,.12.07.41.41,0,0,0,.11.17c0,.06.07.13.05.16a.2.2,0,0,0,0,.15c0,.06,0,.08,0,.1s-.08.19,0,.35a.26.26,0,0,0,.15.14c.09,0,.12.06.12.15a.36.36,0,0,0,.06.19,1.86,1.86,0,0,1,.19.59c0,.11,0,.11.22-.08s.36-.22.45-.12a.44.44,0,0,1-.1.42.24.24,0,0,0-.06.17c0,.22,0,.26-.24.21s-.26-.06-.32,0-.06.1-.1.06-.08,0-.13,0-.06.08,0,.2a.82.82,0,0,1,0,.43c0,.17,0,.56,0,.87,0,.53,0,.56-.08.51a.42.42,0,0,0-.16,0,.37.37,0,0,0-.26.27c0,.06,0,.07-.07.05s-.25-.07-.3,0a.16.16,0,0,1-.13.1c-.14,0-.18.37-.06.6a1.61,1.61,0,0,1,.1.35,2.74,2.74,0,0,0,.12.45.51.51,0,0,0,.28.34c.14.08.19.12.19.2s0,.09.08.08.09,0,.13.19.08.22.13.23a.24.24,0,0,1,.12.16c0,.12.11.18.42.35.48.26.65.42.72.67s.09.2.17.23a.23.23,0,0,1,.17.26.18.18,0,0,0,.08.16c.08,0,.09.09.09.3a1,1,0,0,0,.07.38A.49.49,0,0,1,6,21c0,.1,0,.28,0,.42s0,.24-.1.26-.15.4,0,.51a.39.39,0,0,1,.08.2,1.38,1.38,0,0,0,.36.67.26.26,0,0,1,.1.14s.07.11.14.17.14.13.14.33a1.76,1.76,0,0,0,.07.45c0,.13.07.27.07.31s0,.13,0,.19,0,.12.13.1.13,0,0,.23a.05.05,0,0,0,0,.08c.06,0,.07.11.07.46s0,.44-.09.51a1.19,1.19,0,0,0-.19.31,2,2,0,0,1-.19.34.45.45,0,0,0-.08.18.11.11,0,0,1-.1.1c-.09,0-.11.05-.11.16s-.62,1.06-.8,1-.15.05-.15.22,0,.13-.09.13-.16.09-.28.23a.55.55,0,0,0-.2.51,1.52,1.52,0,0,1-.06.43.82.82,0,0,0-.07.28,1.35,1.35,0,0,1-.27.51C4,31,4,31,4,30.88s-.05-.05-.09,0a.48.48,0,0,0,0,.18c0,.13,0,.14-.18.48a1.22,1.22,0,0,0-.11.27c0,.06.06.06.14,0s.19,0,.11.29l-.13.47c-.15.56-.17.61-.21.64a.1.1,0,0,1-.1,0c-.06,0-.08,0-.13.11s-.08.36,0,3.11v.95l.12.13c.16.17.33.17.44,0s.07-.14,0-.32a1,1,0,0,1,0-.42,1.56,1.56,0,0,0,0-.33c0-.1,0-.11.09-.1s.08.06.08.25c0,.46.17.6.21.18a2.44,2.44,0,0,1,0-.26s.49.21.5.28.06.07.23.06.22,0,.25.14,0,.16,0,.2-.07.06,0,.14a1,1,0,0,1,.18.6.42.42,0,0,0,.14.3l.13.16.06-.14a1.2,1.2,0,0,0,0-.36c0-.12,0-.23,0-.23s.08.08.14.17a.81.81,0,0,0,.19.21.19.19,0,0,1,.09.16.92.92,0,0,0,.08.26,1.18,1.18,0,0,1,.11.27.25.25,0,0,0,.33.2c.11,0,.12,0,.21.27,0,0,.07.07.15.07s.24.07.22.38a3.68,3.68,0,0,1,0,.41c0,.11,0,.13,0,.11a.12.12,0,0,1,.12,0,.22.22,0,0,0,.1.06.41.41,0,0,1,.24.26s0,.08.1.09.11.06.11.08a.83.83,0,0,0,.13.24c.13.17.14.18.29.15.41-.06.38,0,.38-.3v-.23l.16,0c.2,0,.22,0,.22.14a.31.31,0,0,0,.24.33.42.42,0,0,1,.19.08.15.15,0,0,0,.11.06,1.41,1.41,0,0,1,.29.07c.21.06.23.06.3,0s.14-.09.14,0a.08.08,0,0,0,.08.07c.1,0,.14.08.17.38s0,.23.14.24a.24.24,0,0,0,.18,0c.05,0,.08,0,.15,0s.08.07.19,0,.1-.07.1,0a.53.53,0,0,1,0,.19.09.09,0,0,0,0,.13s.06.12.06.26,0,.21-.14.29-.15.12-.15.16a.18.18,0,0,1-.05.12c-.06.06.12.32.3.41a.3.3,0,0,1,.14.13c0,.06.05.06.16,0a.91.91,0,0,0,.19-.26c0-.1.08-.14.16-.14a.25.25,0,0,0,.18-.08.22.22,0,0,1,.15-.08.92.92,0,0,0,.24-.11c.2-.14.23-.12.41.17.05.11.12.18.14.17s.12,0,.21.06l.16.08.05-.12a.35.35,0,0,1,.19-.17.54.54,0,0,0,.14-.07s0-.06,0-.13a.22.22,0,0,1,0-.26c0-.07.08-.13.1-.13s.19-.14.39-.39l.12-.15-.27-.16a3.19,3.19,0,0,1-1.16-1.2,3.13,3.13,0,0,0-.42-.58l-.39-.14a.75.75,0,0,0-.32-.09.76.76,0,0,1-.11.16c-.08.11-.1.11-.46.09s-.38,0-.49-.12a.6.6,0,0,0-.25-.15c-.11,0-.18-.09-.37-.39a4.82,4.82,0,0,0-.43-.55,3,3,0,0,1-.52-1.48c-.19-1.21-.42-1.94-.64-2.05s-.19-.07-.09,0a.42.42,0,0,1,.12.24l0,.15-.12-.11a1.34,1.34,0,0,1-.19-.26.73.73,0,0,0-.19-.23c-.11-.08-.11-.11-.16-.77A3.8,3.8,0,0,0,8,33.57a.82.82,0,0,1-.06-.27c0-.28-.32-.38-.74-.24a.47.47,0,0,1-.22,0s-.07,0-.12.06a.8.8,0,0,1-.59.07A.35.35,0,0,1,6,33.07c-.06-.12-.06-.12.06-.24s.13-.12.07-.24a.64.64,0,0,1-.07-.28A.35.35,0,0,0,5.91,32c-.15-.14-.15-.14-.15-.52A1.89,1.89,0,0,1,5.82,31a.6.6,0,0,0,0-.33c0-.21,0-.25.07-.32s.11-.15,0-.15-.11,0-.09-.07a.26.26,0,0,0,0-.11s0,0,.08,0,.46-.35.28-.42,0-.45.19-.64a.66.66,0,0,0,.21-.4c0-.09,0-.11.11,0s.23-.53.1-.71-.06-.3.07-.3.1,0,.1-.14a1.34,1.34,0,0,1,.23-.67.68.68,0,0,0,.14-.25.84.84,0,0,1,.18-.28.7.7,0,0,0,.26-.54c0-.47.07-.52.25-.63s.31-.38.26-.49a3.89,3.89,0,0,1,0-.45,1.91,1.91,0,0,0,0-.47,1.3,1.3,0,0,1,0-.86,2.23,2.23,0,0,0,.14-.37.69.69,0,0,1,.08-.23c0-.06,0-.11-.09-.34s-.16-.3-.18-.34,0-.3.29-.4A.94.94,0,0,1,8.79,21,.42.42,0,0,0,9,20.85c.11-.1.12-.1.12,0s0,.15.28.06a1.29,1.29,0,0,1,.39-.08.52.52,0,0,0,.21,0s.1,0,.19,0a1.35,1.35,0,0,0,.45.09c.22,0,.33.05.36.1a2.12,2.12,0,0,1,0,.91.31.31,0,0,0,0,.23c.05.11,0,.13-.1.28s-.14.17-.1.26.06.28,0,.28-.19.24-.13.32a.25.25,0,0,0,.15.06c.09,0,.12,0,.17.17s.14.16.14-.07,0-.15.11-.17a2.74,2.74,0,0,1,.91.07,1.62,1.62,0,0,0,1-.13c.17-.18.4-.07.68.36.07.11.11.14.11.09s0-.07.1,0l.12,0s0,.05,0,.11,0,.1.08.1.29.1.55.45a1.06,1.06,0,0,0,.29.31c.13,0,.21,0,.41.17a1,1,0,0,0,.28.17s0-.06,0-.16,0-.15.05-.15.12.1.49.82c.15.29.32.6.38.69l.11.17,0-.25a.58.58,0,0,0-.12-.36.35.35,0,0,1-.1-.19.29.29,0,0,0-.09-.17.29.29,0,0,1-.08-.21.47.47,0,0,0-.1-.26c-.08-.1-.09-.17-.09-.42s0-.32.09-.41l.1-.1-.1,0a.62.62,0,0,1-.2-.24.64.64,0,0,0-.26-.3c-.2-.13-.28-.28-.21-.38a.15.15,0,0,0,0-.16,2.38,2.38,0,0,1-.07-.51.71.71,0,0,0-.16-.29.85.85,0,0,1-.17-.27,1,1,0,0,0-.08-.22.26.26,0,0,1,0-.22,1,1,0,0,0,0-.37l0-.31.25,0c.21,0,.28,0,.39,0s.11-.1.09-.12-.09-.23,0-.23a.76.76,0,0,0,.22-.09c.15-.07.2-.13.31-.38a.81.81,0,0,1,.28-.38c.12-.06.15-.12.2-.3s.11-.37.21-.37a.7.7,0,0,0,.24-.15.76.76,0,0,1,.48-.19,2.35,2.35,0,0,0,.42-.09.28.28,0,0,1,.16,0,.46.46,0,0,0,.18-.06.41.41,0,0,1,.26-.05q.12,0,.15,0c0-.06,0-.05.2,0a1.35,1.35,0,0,0,.58.14c.55.05.88,0,1-.09l.07-.09.16.09a1,1,0,0,0,.78,0,.18.18,0,0,1,.13,0,.13.13,0,0,0,.12,0,.17.17,0,0,1,.14,0c.05,0,.09,0,.15,0s.09-.06.26,0l.26.09c.07,0,.1.1.12.33s0,.13.15.16.16,0,.22-.06a.47.47,0,0,0,.09-.17c0-.09.18-.2.41-.24s.24-.08.42-.28l.24-.24,0-.38c0-.36,0-.39.08-.49s.09-.11.06-.21a.14.14,0,0,1,0-.18s0-.08,0-.08a.78.78,0,0,1-.2-.21L24.2,16l.09-.15a.33.33,0,0,1,.2-.16q.12,0,.12-.09c0-.07,0-.09-.15-.1a.38.38,0,0,1-.2-.07c-.05,0,0-.05.06-.1s.26-.18.26-.27a.41.41,0,0,1,.07-.18.43.43,0,0,0,0-.45.6.6,0,0,0-.29-.18c-.28-.1-.52-.36-.46-.52s.06-.1.08-.1.05,0,.05-.1,0-.1-.37-.15S23,13.2,23,13.06a.92.92,0,0,0-.35-.53.61.61,0,0,1-.2-.22.33.33,0,0,0-.19-.18c-.11,0-.11,0-.11-.42a5.16,5.16,0,0,0,0-.78c0-.38,0-.4.07-.6a1,1,0,0,0,.1-.55c0-.4-.06-.54-.35-.68a1.56,1.56,0,0,1-.78-.66c-.11-.21-.15-.25-.3-.29s-.17-.08-.2-.2a1.4,1.4,0,0,0-.24-.44C20.27,7.35,20.1,7.1,20,7s-.17-.26-.2-.26a.55.55,0,0,0-.17.11c-.12.1-.13.1-.13,0s-.05-.09-.26-.13a1.75,1.75,0,0,1-.44-.14.62.62,0,0,0-.28-.07.33.33,0,0,1-.21,0,.55.55,0,0,0-.5,0,.28.28,0,0,0-.06.2c0,.13,0,.15-.16.18s-.16.06-.16.16a.49.49,0,0,1-.08.22.39.39,0,0,0-.09.2c0,.21-.2.37-.33.25s-.11,0-.33.07-.39.18-.46.34-.08.13-.12.12-.2-.23-.17-.3-.06-.18-.25-.18a1,1,0,0,1-.36-.09c-.1,0-.21-.08-.24-.06s-.29-.22-.33-.35-.06-.11-.3-.16-.15,0-.35.21l-.22.23-.19-.06c-.18-.06-.19-.06-.25.06a1.69,1.69,0,0,0-.08.24c0,.1-.08.15-.24.25s-.21.14-.19.19,0,.09-.22.15-.3.14-.62.47l-.38.39-.19-.11a1.11,1.11,0,0,0-.24-.1c-.07,0-.08-.3,0-.42a.32.32,0,0,0,0-.17.6.6,0,0,1,.23-.51.16.16,0,0,0,.09-.15.18.18,0,0,1,.09-.14c.09,0,.1-.15.06-.69,0-.29,0-.32-.14-.36s-.25-.12-.16-.2A1.44,1.44,0,0,0,11.67,6s0,0,.06,0,.11-.08.17-.19.08-.2,0-.24-.06-.07,0-.2A.92.92,0,0,0,12,5.07a.45.45,0,0,1,.16-.28c.15-.14.15-.15.06-.18s-.26-.31-.26-.54a.54.54,0,0,0,0-.22.51.51,0,0,1-.08-.18c-.05-.13-.05-.14.07-.21a.21.21,0,0,0,.06-.35c-.06-.07-.08-.07-.24,0s-.18,0-.26,0A.59.59,0,0,0,11,3a.83.83,0,0,0-.31.16c-.19.14-.2.15-.3.08a.34.34,0,0,0-.38,0c0,.06-.27-.08-.27-.17A.2.2,0,0,0,9.65,3a.15.15,0,0,1-.09-.13.3.3,0,0,0-.05-.16.24.24,0,0,1,.17-.33c.13,0,.17-.12.24-.54,0-.1,0-.23.05-.3s0-.11-.08-.09S9.63,1.3,9.44,1,9,.62,9,.81a.74.74,0,0,1-.43.32c-.05,0-.06,0,0-.18s0-.32-.2-.32A.1.1,0,0,1,8.23.56C8.2.49,8,.48,7.93.53Z" style="fill:none;stroke:#fff;stroke-miterlimit:10"/><path d="M14.84,24.74a2.36,2.36,0,0,0,.1.26.48.48,0,0,0,.3.32c.23.1.28.08.15-.08a2.46,2.46,0,0,1-.17-.27.61.61,0,0,0-.19-.2C14.91,24.72,14.84,24.71,14.84,24.74Z" style="fill:none;stroke:#fff;stroke-miterlimit:10"/><path d="M15.65,26a.48.48,0,0,0,0,.42c.08.05.09,0,.12-.15S15.76,25.82,15.65,26Z" style="fill:none;stroke:#fff;stroke-miterlimit:10"/><path d="M3,30.84a.15.15,0,0,0-.09.12.15.15,0,0,1-.09.13.32.32,0,0,0-.06.35c0,.1.49-.41.48-.53S3.17,30.79,3,30.84Z" style="fill:none;stroke:#fff;stroke-miterlimit:10"/><path d="M8.22,31.68c0,.16,0,.16.1.21l.14,0v-.17c0-.11,0-.17-.08-.2S8.27,31.5,8.22,31.68Z" style="fill:none;stroke:#fff;stroke-miterlimit:10"/><path d="M8.16,32.23c-.13,0-.15,0-.12.09a.69.69,0,0,1,0,.26c0,.11,0,.2.05.2a.92.92,0,0,0,.38-.38c0-.11,0-.14,0-.17S8.4,32.19,8.16,32.23Z" style="fill:none;stroke:#fff;stroke-miterlimit:10"/><path d="M2,32.54c-.06.06-.07.18,0,.22s.18-.14.15-.22S2.08,32.47,2,32.54Z" style="fill:none;stroke:#fff;stroke-miterlimit:10"/><path d="M7.16,40.54a.38.38,0,0,1-.07.17c-.07.1,0,.18.1.31s.2.06.21-.22,0-.25-.1-.29S7.16,40.45,7.16,40.54Z" style="fill:none;stroke:#fff;stroke-miterlimit:10"/><path d="M6.08,40.88a.93.93,0,0,0-.31.12c0,.06.18.12.26.08a.24.24,0,0,1,.15,0c.09.06.09.05.13,0l.09-.19C6.45,40.79,6.46,40.79,6.08,40.88Z" style="fill:none;stroke:#fff;stroke-miterlimit:10"/><path d="M7.68,41.28a1.62,1.62,0,0,1-.31.1l-.19,0,.13.09c.15.08.18.16.18.38s0,.14.09.14a.16.16,0,0,0,.13-.1.16.16,0,0,1,.14-.11c.23,0,.27-.23.09-.48S7.85,41.21,7.68,41.28Z" style="fill:none;stroke:#fff;stroke-miterlimit:10"/></svg>